<svg xmlns="http://www.w3.org/2000/svg">
  <symbol id="icon-drop" viewBox="0 0 48 48">
    <path d="M24 5c7 9 14 16 14 24a14 14 0 1 1-28 0C10 21 17 14 24 5Z" fill="none" stroke="currentColor" stroke-linecap="round" stroke-linejoin="round" stroke-width="2.5"></path>
    <path d="M18 31c1.5 2.7 4.1 4.2 7.2 4.2" fill="none" stroke="currentColor" stroke-linecap="round" stroke-width="2.5"></path>
  </symbol>
  <symbol id="icon-truck" viewBox="0 0 48 48">
    <path d="M6 14h24v16H6zM30 20h7l5 6v4h-5M13 36a4 4 0 1 0 0-8 4 4 0 0 0 0 8ZM34 36a4 4 0 1 0 0-8 4 4 0 0 0 0 8Z" fill="none" stroke="currentColor" stroke-linecap="round" stroke-linejoin="round" stroke-width="2.5"></path>
  </symbol>
  <symbol id="icon-office" viewBox="0 0 48 48">
    <path d="M10 40V12l14-4v32M24 17h14v23M16 20h2m-2 7h2m-2 7h2m14-10h2m-2 7h2" fill="none" stroke="currentColor" stroke-linecap="round" stroke-linejoin="round" stroke-width="2.5"></path>
  </symbol>
  <symbol id="icon-sanitize" viewBox="0 0 48 48">
    <path d="M18 10h12m-9 0v7l-7 8a11 11 0 1 0 20 0l-7-8v-7" fill="none" stroke="currentColor" stroke-linecap="round" stroke-linejoin="round" stroke-width="2.5"></path>
    <path d="M16 27h16" fill="none" stroke="currentColor" stroke-linecap="round" stroke-width="2.5"></path>
  </symbol>
  <symbol id="icon-bulk" viewBox="0 0 48 48">
    <path d="M10 17 24 9l14 8-14 8-14-8Zm0 0v14l14 8 14-8V17" fill="none" stroke="currentColor" stroke-linecap="round" stroke-linejoin="round" stroke-width="2.5"></path>
  </symbol>
  <symbol id="icon-dispenser" viewBox="0 0 48 48">
    <path d="M18 9h12l2 10H16l2-10Zm-3 10h18v19a3 3 0 0 1-3 3H18a3 3 0 0 1-3-3V19Zm9 4v9m0 0-4 4m4-4 4 4" fill="none" stroke="currentColor" stroke-linecap="round" stroke-linejoin="round" stroke-width="2.5"></path>
  </symbol>
  <symbol id="icon-shield" viewBox="0 0 48 48">
    <path d="M24 7 37 12v10c0 8.4-5.2 15.4-13 19-7.8-3.6-13-10.6-13-19V12l13-5Z" fill="none" stroke="currentColor" stroke-linecap="round" stroke-linejoin="round" stroke-width="2.5"></path>
    <path d="m18 24 4 4 8-8" fill="none" stroke="currentColor" stroke-linecap="round" stroke-linejoin="round" stroke-width="2.5"></path>
  </symbol>
  <symbol id="icon-check" viewBox="0 0 48 48">
    <path d="m14 24 7 7 13-14" fill="none" stroke="currentColor" stroke-linecap="round" stroke-linejoin="round" stroke-width="3"></path>
  </symbol>
  <symbol id="icon-phone" viewBox="0 0 48 48">
    <path d="M14 8h7l3 8-4 3c2.7 5 5.4 7.8 10.4 10.5l3.1-4h8l2 7c.5 1.8-.5 3.7-2.3 4.3-3.3 1-7.1 1.2-11.2.2C20.6 35.4 12.6 27.4 10.5 18.2c-.9-4-.8-7.8.2-11.1A3.5 3.5 0 0 1 14 8Z" fill="none" stroke="currentColor" stroke-linecap="round" stroke-linejoin="round" stroke-width="2.5"></path>
  </symbol>
  <symbol id="icon-pin" viewBox="0 0 48 48">
    <path d="M24 41s11-10.1 11-20a11 11 0 1 0-22 0c0 9.9 11 20 11 20Z" fill="none" stroke="currentColor" stroke-linecap="round" stroke-linejoin="round" stroke-width="2.5"></path>
    <circle cx="24" cy="21" r="4" fill="none" stroke="currentColor" stroke-width="2.5"></circle>
  </symbol>
  <symbol id="icon-clock" viewBox="0 0 48 48">
    <circle cx="24" cy="24" r="16" fill="none" stroke="currentColor" stroke-width="2.5"></circle>
    <path d="M24 15v10l7 4" fill="none" stroke="currentColor" stroke-linecap="round" stroke-linejoin="round" stroke-width="2.5"></path>
  </symbol>
  <symbol id="icon-chat" viewBox="0 0 48 48">
    <path d="M11 14h26v16H22l-8 8v-8h-3z" fill="none" stroke="currentColor" stroke-linecap="round" stroke-linejoin="round" stroke-width="2.5"></path>
  </symbol>
  <symbol id="icon-star" viewBox="0 0 48 48">
    <path d="m24 8 4.9 10 11.1 1.6-8 7.8 1.9 11L24 33.2l-9.9 5.2 1.9-11-8-7.8L19.1 18 24 8Z" fill="currentColor"></path>
  </symbol>
</svg>
